<mxfile host="app.diagrams.net" agent="Mozilla/5.0 (Macintosh; Intel Mac OS X 10_15_7) AppleWebKit/605.1.15 (KHTML, like Gecko) Version/18.2 Safari/605.1.15" version="26.0.2">
  <diagram name="Page-1" id="4hJILAGEbwTBemeoa3Qo">
    <mxGraphModel dx="1713" dy="1187" grid="1" gridSize="10" guides="1" tooltips="1" connect="1" arrows="1" fold="1" page="1" pageScale="1" pageWidth="850" pageHeight="1100" math="0" shadow="0">
      <root>
        <mxCell id="0" />
        <mxCell id="1" parent="0" />
        <mxCell id="0dfiqVyz6mCU2s2Jha3c-3" value="" style="rounded=1;whiteSpace=wrap;html=1;strokeColor=#0070F2;fillColor=#EBF8FF;arcSize=24;absoluteArcSize=1;imageWidth=64;imageHeight=64;strokeWidth=1.5;" vertex="1" parent="1">
          <mxGeometry x="388" y="226.5" width="370" height="453.5" as="geometry" />
        </mxCell>
        <mxCell id="0dfiqVyz6mCU2s2Jha3c-4" value="BTP" style="image;image=img/lib/sap/SAP_Logo.svg;editableCssRules=.*;part=1;verticalLabelPosition=middle;labelBackgroundColor=none;verticalAlign=middle;imageAspect=0;labelPosition=right;align=left;fontSize=16;fontStyle=1;spacingLeft=0;fontColor=#002A86;spacing=0;" vertex="1" parent="0dfiqVyz6mCU2s2Jha3c-3">
          <mxGeometry width="37" height="19" relative="1" as="geometry">
            <mxPoint x="20" y="20" as="offset" />
          </mxGeometry>
        </mxCell>
        <mxCell id="0dfiqVyz6mCU2s2Jha3c-5" value="Subaccount&lt;div&gt;&lt;span style=&quot;font-weight: normal;&quot;&gt;&lt;font style=&quot;font-size: 12px;&quot;&gt;Multi-Cloud&lt;/font&gt;&lt;/span&gt;&lt;/div&gt;" style="rounded=1;whiteSpace=wrap;html=1;strokeColor=#475E75;fillColor=#ffffff;arcSize=24;absoluteArcSize=1;imageWidth=64;imageHeight=64;strokeWidth=1.5;part=1;verticalAlign=top;align=left;fontSize=16;fontStyle=1;spacingLeft=10;spacingTop=10;" vertex="1" parent="0dfiqVyz6mCU2s2Jha3c-3">
          <mxGeometry x="10" y="37.1735960591133" width="340" height="319.6839901477832" as="geometry" />
        </mxCell>
        <mxCell id="0dfiqVyz6mCU2s2Jha3c-33" value="" style="shape=mxgraph.sap.icon;labelPosition=center;verticalLabelPosition=bottom;align=center;verticalAlign=top;strokeWidth=1;strokeColor=#D5DADD;fillColor=#EDEFF0;gradientColor=#FCFCFC;gradientDirection=west;aspect=fixed;SAPIcon=SAP_Integration_Suite_-_API_Managment" vertex="1" parent="0dfiqVyz6mCU2s2Jha3c-3">
          <mxGeometry x="40.12" y="145.52" width="39.88" height="39.88" as="geometry" />
        </mxCell>
        <mxCell id="0dfiqVyz6mCU2s2Jha3c-34" value="&lt;font face=&quot;arial&quot;&gt;&lt;b&gt;SAP API Management&lt;/b&gt;&lt;/font&gt;" style="text;html=1;align=left;verticalAlign=middle;resizable=0;points=[];autosize=1;strokeColor=none;fillColor=none;fontSize=11;fontColor=#1d2d3e;fontFamily=Helvetica;" vertex="1" parent="0dfiqVyz6mCU2s2Jha3c-3">
          <mxGeometry x="13.373493975903616" y="199.19745484400656" width="140" height="30" as="geometry" />
        </mxCell>
        <mxCell id="0dfiqVyz6mCU2s2Jha3c-35" value="" style="shape=mxgraph.sap.icon;labelPosition=center;verticalLabelPosition=bottom;align=center;verticalAlign=top;strokeWidth=1;strokeColor=#D5DADD;fillColor=#EDEFF0;gradientColor=#FCFCFC;gradientDirection=west;aspect=fixed;SAPIcon=SAP_Integration_Suite_-_Cloud_Integration" vertex="1" parent="0dfiqVyz6mCU2s2Jha3c-3">
          <mxGeometry x="167.11" y="143.77" width="42.89" height="42.89" as="geometry" />
        </mxCell>
        <mxCell id="0dfiqVyz6mCU2s2Jha3c-36" value="&lt;font face=&quot;arial&quot;&gt;&lt;b&gt;SAP Cloud Integration&lt;/b&gt;&lt;/font&gt;" style="text;html=1;align=left;verticalAlign=middle;resizable=0;points=[];autosize=1;strokeColor=none;fillColor=none;fontSize=11;fontColor=#1d2d3e;fontFamily=Helvetica;" vertex="1" parent="0dfiqVyz6mCU2s2Jha3c-3">
          <mxGeometry x="135.90361445783134" y="199.19745484400656" width="140" height="30" as="geometry" />
        </mxCell>
        <mxCell id="0dfiqVyz6mCU2s2Jha3c-37" style="edgeStyle=orthogonalEdgeStyle;rounded=0;orthogonalLoop=1;jettySize=auto;html=1;entryX=0.08;entryY=0.52;entryDx=0;entryDy=0;entryPerimeter=0;" edge="1" parent="0dfiqVyz6mCU2s2Jha3c-3" source="0dfiqVyz6mCU2s2Jha3c-33" target="0dfiqVyz6mCU2s2Jha3c-35">
          <mxGeometry relative="1" as="geometry">
            <mxPoint x="147.10843373493978" y="132.92241379310346" as="targetPoint" />
          </mxGeometry>
        </mxCell>
        <mxCell id="0dfiqVyz6mCU2s2Jha3c-6" value="&lt;b style=&quot;border-color: var(--border-color); color: rgb(0, 112, 242); font-size: 16px;&quot;&gt;GSI Diagrama de Arquitectura de Alto Nivel: API&lt;/b&gt;" style="text;html=1;align=left;verticalAlign=middle;resizable=0;points=[];autosize=1;strokeColor=none;fillColor=none;fontSize=12;fontColor=#1d2d3e;fontFamily=Helvetica;" vertex="1" parent="1">
          <mxGeometry x="190" y="169" width="390" height="30" as="geometry" />
        </mxCell>
        <mxCell id="0dfiqVyz6mCU2s2Jha3c-7" value="" style="strokeColor=#0070F2;shadow=0;strokeWidth=2;rounded=1;absoluteArcSize=1;arcSize=20;" vertex="1" parent="1">
          <mxGeometry x="1032" y="274" width="200" height="160" as="geometry" />
        </mxCell>
        <mxCell id="0dfiqVyz6mCU2s2Jha3c-14" value="NETWORK" style="text;html=1;align=left;verticalAlign=middle;resizable=0;points=[];autosize=1;strokeColor=none;fillColor=none;fontSize=14;fontStyle=1;fontColor=#5B738B;" vertex="1" parent="1">
          <mxGeometry x="1002" y="160" width="100" height="30" as="geometry" />
        </mxCell>
        <mxCell id="0dfiqVyz6mCU2s2Jha3c-16" value="" style="endArrow=blockThin;html=1;strokeColor=#475E75;bendable=1;rounded=0;endFill=1;endSize=4;strokeWidth=1.5;startSize=4;startArrow=none;startFill=0;edgeStyle=orthogonalEdgeStyle;exitX=1;exitY=0.5;exitDx=0;exitDy=0;" edge="1" source="0dfiqVyz6mCU2s2Jha3c-25" target="0dfiqVyz6mCU2s2Jha3c-7" parent="1">
          <mxGeometry width="50" height="50" relative="1" as="geometry">
            <mxPoint x="932" y="380" as="sourcePoint" />
            <mxPoint x="962" y="392" as="targetPoint" />
            <Array as="points">
              <mxPoint x="920" y="393" />
            </Array>
          </mxGeometry>
        </mxCell>
        <mxCell id="0dfiqVyz6mCU2s2Jha3c-19" value="" style="endArrow=none;html=1;strokeColor=#5B738B;bendable=1;rounded=0;endFill=0;endSize=4;strokeWidth=3;startSize=4;startArrow=none;startFill=0;jumpStyle=gap;" edge="1" parent="1">
          <mxGeometry width="50" height="50" relative="1" as="geometry">
            <mxPoint x="992" y="162" as="sourcePoint" />
            <mxPoint x="992" y="710" as="targetPoint" />
            <Array as="points" />
          </mxGeometry>
        </mxCell>
        <mxCell id="0dfiqVyz6mCU2s2Jha3c-24" value="" style="endArrow=none;html=1;strokeColor=#475E75;bendable=1;rounded=0;endFill=0;endSize=4;strokeWidth=1.5;startSize=4;startArrow=none;startFill=0;edgeStyle=orthogonalEdgeStyle;exitX=1;exitY=0.5;exitDx=0;exitDy=0;exitPerimeter=0;entryX=0;entryY=0.5;entryDx=0;entryDy=0;" edge="1" target="0dfiqVyz6mCU2s2Jha3c-25" parent="1" source="0dfiqVyz6mCU2s2Jha3c-35">
          <mxGeometry width="50" height="50" relative="1" as="geometry">
            <mxPoint x="1340" y="571" as="sourcePoint" />
            <mxPoint x="1530" y="463" as="targetPoint" />
            <Array as="points">
              <mxPoint x="830" y="392" />
            </Array>
          </mxGeometry>
        </mxCell>
        <mxCell id="0dfiqVyz6mCU2s2Jha3c-25" value="HTTPS / ODATA" style="rounded=1;whiteSpace=wrap;html=1;strokeColor=#475E75;strokeWidth=1.5;arcSize=16;fillColor=#FFFFFF;perimeterSpacing=0;absoluteArcSize=1;fontColor=#475E75;fontSize=10;fontStyle=1" vertex="1" parent="1">
          <mxGeometry x="830" y="384" width="90" height="16" as="geometry" />
        </mxCell>
        <mxCell id="0dfiqVyz6mCU2s2Jha3c-28" value="User" style="shape=image;editableCssRules=.*;verticalLabelPosition=bottom;labelBackgroundColor=none;verticalAlign=top;aspect=fixed;imageAspect=0;image=data:image/svg+xml,PHN2ZyB4bWxucz0iaHR0cDovL3d3dy53My5vcmcvMjAwMC9zdmciIHZpZXdCb3g9Ii0wLjUgLTAuNSAyOCAyOCIgaGVpZ2h0PSIyOCIgd2lkdGg9IjI4Ij4mI3hhOwkgIDxzdHlsZSB0eXBlPSJ0ZXh0L2NzcyI+LnN0MCB7IHN0b3AtY29sb3I6IHJnYig5MSwgMTE1LCAxMzkpOyB9IC5zdDEgeyBzdG9wLWNvbG9yOiByZ2IoMzQsIDUzLCA3Mik7IH0gPC9zdHlsZT4mI3hhOwk8ZGVmcz4mI3hhOwkJPGxpbmVhckdyYWRpZW50IGdyYWRpZW50VW5pdHM9InVzZXJTcGFjZU9uVXNlIiB5Mj0iMjUuMzA5IiB4Mj0iMjMuNDU0IiB5MT0iMy40NzQiIHgxPSIyLjAzOSIgaWQ9IkEiPiYjeGE7CQkJPHN0b3AgY2xhc3M9InN0MCIvPiYjeGE7CQkJPHN0b3AgY2xhc3M9InN0MSIgb2Zmc2V0PSIxIi8+JiN4YTsJCTwvbGluZWFyR3JhZGllbnQ+JiN4YTsJPC9kZWZzPiYjeGE7CTxwYXRoIGZpbGw9InVybCgjQSkiIGQ9Ik0tLjUgMTMuNDcyYzAtMS45My4zNzEtMy43MyAxLjExMy01LjQuNzQyLTEuNzA3IDEuNzQ0LTMuMTkyIDMuMDA2LTQuNDUzUzYuMzY1IDEuMzU2IDguMDczLjYxMyAxMS41OTgtLjUgMTMuNTI4LS41czMuNzMuMzcxIDUuNCAxLjExM2MxLjcwNy43NDIgMy4xOTIgMS43NDQgNC40NTMgMy4wMDZzMi4yNjQgMi43NDYgMy4wMDYgNC40NTNjLjc0MiAxLjY3IDEuMTEzIDMuNDcgMS4xMTMgNS40cy0uMzcxIDMuNzQ4LTEuMTEzIDUuNDU1LTEuNzQ0IDMuMTkyLTMuMDA2IDQuNDUzYTE0LjI4IDE0LjI4IDAgMCAxLTQuNDUzIDMuMDA2Yy0xLjY3Ljc0Mi0zLjQ3IDEuMTEzLTUuNCAxLjExM3MtMy43NDgtLjM3MS01LjQ1NS0xLjExM2ExNC4yOCAxNC4yOCAwIDAgMS00LjQ1My0zLjAwNiAxNC4yOCAxNC4yOCAwIDAgMS0zLjAwNi00LjQ1M0MtLjEyOSAxNy4yMi0uNSAxNS40MDItLjUgMTMuNDcyem0xNi44MTEgNC4yMzFhNi42NSA2LjY1IDAgMCAxIDMuMjg0LjgzNWMxLjAwMi41MiAxLjgxOCAxLjI0MyAyLjQ0OSAyLjE3MWExMC4xNCAxMC4xNCAwIDAgMCAxLjk0OC0zLjI4NGMuNDgyLTEuMjI1LjcyNC0yLjU0Mi43MjQtMy45NTIgMC0xLjU1OS0uMjk3LTMuMDA2LS44OTEtNC4zNDItLjU5NC0xLjM3My0xLjM5Mi0yLjU2MS0yLjM5NC0zLjU2M3MtMi4xOS0xLjgtMy41NjMtMi4zOTRjLTEuMzM2LS41OTQtMi43ODMtLjg5MS00LjM0Mi0uODkxcy0zLjAyNC4yOTctNC4zOTguODkxYy0xLjMzNi41OTQtMi41MjQgMS4zOTItMy41NjMgMi4zOTRBMTEuMzUgMTEuMzUgMCAwIDAgMy4xNzQgOS4xM2MtLjU5NCAxLjMzNi0uODkxIDIuNzgzLS44OTEgNC4zNDIgMCAxLjQxLjIyMyAyLjcyOC42NjggMy45NTIuNDgyIDEuMjI1IDEuMTUgMi4zMTkgMi4wMDQgMy4yODQuNjMxLS45MjggMS40NDctMS42NTEgMi40NDktMi4xNzFhNi42NSA2LjY1IDAgMCAxIDMuMjg0LS44MzV6bTIuNzgzLTcuMDE0YTUuNjggNS42OCAwIDAgMS0uNDQ1IDIuMjI3IDUuODcgNS44NyAwIDAgMS0xLjIyNSAxLjc4MWMtLjQ4Mi40ODItMS4wNTguODcyLTEuNzI2IDEuMTY5cy0xLjM5Mi40NDUtMi4xNzEuNDQ1YTUuNjggNS42OCAwIDAgMS0yLjIyNy0uNDQ1IDYuNDQgNi40NCAwIDAgMS0xLjc4MS0xLjE2OSA2LjQ0IDYuNDQgMCAwIDEtMS4xNjktMS43ODEgNS42OCA1LjY4IDAgMCAxLS40NDUtMi4yMjdjMC0uNzc5LjE0OC0xLjUwMy40NDUtMi4xNzFBNi40NCA2LjQ0IDAgMCAxIDkuNTIgNi43MzdhNS44NyA1Ljg3IDAgMCAxIDEuNzgxLTEuMjI1IDUuNjggNS42OCAwIDAgMSAyLjIyNy0uNDQ1Yy43NzkgMCAxLjUwMy4xNDggMi4xNzEuNDQ1czEuMjQzLjcwNSAxLjcyNiAxLjIyNWE1Ljg3IDUuODcgMCAwIDEgMS4yMjUgMS43ODFjLjI5Ny42NjguNDQ1IDEuMzkyLjQ0NSAyLjE3MXptLTIuNzgzIDBjMC0uNzc5LS4yNzgtMS40MjktLjgzNS0xLjk0OC0uNTU3LS41NTctMS4yMDYtLjgzNS0xLjk0OC0uODM1YTIuNzMgMi43MyAwIDAgMC0yLjAwNC44MzVjLS41NTcuNTItLjgzNSAxLjE2OS0uODM1IDEuOTQ4YTIuNzMgMi43MyAwIDAgMCAuODM1IDIuMDA0Yy41NTcuNTIgMS4yMjUuNzc5IDIuMDA0Ljc3OS43NDIgMCAxLjM5Mi0uMjYgMS45NDgtLjc3OWEyLjczIDIuNzMgMCAwIDAgLjgzNS0yLjAwNHpNNy4wNzEgMjIuNjU3Yy44OTEuNjMxIDEuODc0IDEuMTMyIDIuOTUgMS41MDMgMS4xMTMuMzcxIDIuMjgyLjU1NyAzLjUwNy41NTcgMS4xODggMCAyLjMxOS0uMTg2IDMuMzk2LS41NTcgMS4xMTMtLjM3MSAyLjExNS0uODcyIDMuMDA2LTEuNTAzLS4zNzEtLjY2OC0uODkxLTEuMTg4LTEuNTU5LTEuNTU5LS42MzEtLjQwOC0xLjMxNy0uNjEyLTIuMDYtLjYxMmgtNS42MjJjLS43NDIgMC0xLjQ0Ny4yMDQtMi4xMTUuNjEyLS42MzEuMzcxLTEuMTMyLjg5MS0xLjUwMyAxLjU1OXoiLz4mI3hhOzwvc3ZnPg==;fontStyle=1" vertex="1" parent="1">
          <mxGeometry x="188" y="211" width="48" height="48" as="geometry" />
        </mxCell>
        <mxCell id="0dfiqVyz6mCU2s2Jha3c-29" value="" style="rounded=1;whiteSpace=wrap;html=1;strokeColor=#475E75;strokeWidth=1.5;arcSize=5;fillColor=#F5F6F7;perimeterSpacing=0;" vertex="1" parent="1">
          <mxGeometry x="123" y="321" width="170" height="140" as="geometry" />
        </mxCell>
        <mxCell id="0dfiqVyz6mCU2s2Jha3c-30" value="Mobile/Desktop&lt;br&gt;&lt;b&gt;&lt;font style=&quot;font-size: 16px;&quot;&gt;Application Clients&lt;/font&gt;&lt;/b&gt;" style="shape=image;editableCssRules=.*;verticalLabelPosition=bottom;labelBackgroundColor=none;verticalAlign=top;aspect=fixed;imageAspect=0;html=1;image=data:image/svg+xml,PHN2ZyB4bWxucz0iaHR0cDovL3d3dy53My5vcmcvMjAwMC9zdmciIHZpZXdCb3g9Ii0wLjUgLTAuNSAyOCAyMy4zNDMiIGhlaWdodD0iMjMuMzQzIiB3aWR0aD0iMjgiPiYjeGE7CSAgPHN0eWxlIHR5cGU9InRleHQvY3NzIj4uc3QwIHsgc3RvcC1jb2xvcjogcmdiKDkxLCAxMTUsIDEzOSk7IH0gLnN0MSB7IHN0b3AtY29sb3I6IHJnYigzNCwgNTMsIDcyKTsgfSA8L3N0eWxlPiYjeGE7CTxkZWZzPiYjeGE7CQk8bGluZWFyR3JhZGllbnQgZ3JhZGllbnRVbml0cz0idXNlclNwYWNlT25Vc2UiIHkyPSIyNC4yMTciIHgyPSIxOS41NCIgeTE9IjIuODEzIiB4MT0iMi4wMzkiIGlkPSJBIj4mI3hhOwkJCTxzdG9wIGNsYXNzPSJzdDAiLz4mI3hhOwkJCTxzdG9wIGNsYXNzPSJzdDEiIG9mZnNldD0iMSIvPiYjeGE7CQk8L2xpbmVhckdyYWRpZW50PiYjeGE7CTwvZGVmcz4mI3hhOwk8cGF0aCBmaWxsPSJ1cmwoI0EpIiBkPSJNMTMuNTI3IDE4LjE4NnYyLjNoMS4xNWMuNzY4IDAgMS4xNS40MDMgMS4xNSAxLjIwNi4wMDQuMTUyLS4wMjIuMzA0LS4wNzkuNDQ1cy0uMTQxLjI3LS4yNDkuMzc3Yy0uMTgyLjIxNy0uNDU2LjMyOC0uODIyLjMyOEg3LjY2NGMtLjE1Mi4wMDQtLjMwMy0uMDIzLS40NDQtLjA4cy0uMjY5LS4xNDItLjM3Ni0uMjUtLjE5My0uMjM1LS4yNS0uMzc2LS4wODQtLjI5Mi0uMDgtLjQ0NGMwLS4zNjYuMTEtLjY1Ny4zMy0uODc3LjEwNy0uMTA4LjIzNS0uMTkzLjM3Ni0uMjVzLjI5Mi0uMDg0LjQ0NC0uMDhoMy41MDd2LTIuM0gzLjAwN2EzLjUzIDMuNTMgMCAwIDEtMi41MjEtLjk4NyAzLjUzIDMuNTMgMCAwIDEtLjk4NS0yLjUxOVYzLjAwOWMwLS45ODcuMzMtMS44MDkuOTg3LTIuNDY3LjMyNy0uMzM2LjcxOS0uNjAyIDEuMTUyLS43ODJzLjg5OS0uMjY4IDEuMzY4LS4yNmgxOC42ODNBMy4yNSAzLjI1IDAgMCAxIDI0LjE1Ni41NDJjLjY5NC42NTggMS4wNDEgMS40OCAxLjA0MSAyLjQ2NXYyLjM1NmMuMDA0LjE1Mi0uMDIyLjMwNC0uMDc5LjQ0NXMtLjE0MS4yNy0uMjQ5LjM3N2MtLjExNi4xMTItLjI1NC4xOTgtLjQwNC4yNTVzLS4zMTEuMDgyLS40NzIuMDc1Yy0uMTUyLjAwNC0uMzA0LS4wMjMtLjQ0NS0uMDhzLS4yNy0uMTQyLS4zNzctLjI1LS4xOTMtLjIzNi0uMjUtLjM3Ny0uMDg0LS4yOTMtLjA4LS40NDVWMy4wMDljMC0uNzY4LS4zODItMS4xNTItMS4xNS0xLjE1MkgzLjAwN2MtLjc2OCAwLTEuMTUuMzg0LTEuMTUgMS4xNXYxMS42NzJjMCAuNzY2LjM4MiAxLjE1IDEuMTUgMS4xNWgxMS42N2MuNzY4IDAgMS4xNS40MDMgMS4xNSAxLjIwNi4wMDQuMTUyLS4wMjMuMzAzLS4wNzkuNDQ0cy0uMTQxLjI2OS0uMjQ5LjM3NmMtLjE4Mi4yMTktLjQ1Ni4zMy0uODIyLjMzem0xMi44MjItOS4zN2MuNzY2IDAgMS4xNS40MDMgMS4xNSAxLjIwNnYxMS42N2MuMDA0LjE1Mi0uMDIzLjMwNC0uMDguNDQ1cy0uMTQyLjI3LS4yNS4zNzdjLS4xODIuMjE3LS40NTYuMzI4LS44MjIuMzI4aC03LjAxM2MtLjE1Mi4wMDQtLjMwMy0uMDIzLS40NDQtLjA4cy0uMjY5LS4xNDItLjM3Ni0uMjUtLjE5My0uMjM1LS4yNS0uMzc2LS4wODQtLjI5Mi0uMDgtLjQ0NHYtMTEuNjdjMC0uMzY2LjExLS42NTcuMzMtLjg3Ny4xMDctLjEwOC4yMzYtLjE5My4zNzctLjI1cy4yOTMtLjA4NC40NDUtLjA4em0tNS44MDkgMi4zNTZ2OC4xNjNoNC42NTd2LTguMTY0eiIvPiYjeGE7PC9zdmc+;" vertex="1" parent="0dfiqVyz6mCU2s2Jha3c-29">
          <mxGeometry x="0.5" y="0.5" width="48" height="40" relative="1" as="geometry">
            <mxPoint x="-24" y="-20" as="offset" />
          </mxGeometry>
        </mxCell>
        <mxCell id="0dfiqVyz6mCU2s2Jha3c-31" value="" style="edgeStyle=none;endArrow=blockThin;verticalAlign=top;labelBackgroundColor=none;endSize=6;html=1;rounded=0;targetPerimeterSpacing=0;sourcePerimeterSpacing=30;endFill=1;strokeColor=#475E75;" edge="1" source="0dfiqVyz6mCU2s2Jha3c-28" target="0dfiqVyz6mCU2s2Jha3c-29" parent="1">
          <mxGeometry relative="1" as="geometry" />
        </mxCell>
        <mxCell id="0dfiqVyz6mCU2s2Jha3c-32" value="" style="edgeStyle=none;endArrow=blockThin;verticalAlign=top;labelBackgroundColor=none;endSize=6;html=1;rounded=0;targetPerimeterSpacing=10;sourcePerimeterSpacing=0;endFill=1;strokeColor=#475E75;entryX=-0.02;entryY=0.5;entryDx=0;entryDy=0;entryPerimeter=0;" edge="1" source="0dfiqVyz6mCU2s2Jha3c-29" parent="1" target="0dfiqVyz6mCU2s2Jha3c-33">
          <mxGeometry relative="1" as="geometry">
            <mxPoint x="260" y="453" as="targetPoint" />
          </mxGeometry>
        </mxCell>
        <mxCell id="0dfiqVyz6mCU2s2Jha3c-38" value="S/4HANA Cloud" style="image;image=img/lib/sap/SAP_Logo.svg;editableCssRules=.*;verticalLabelPosition=middle;labelBackgroundColor=none;verticalAlign=middle;imageAspect=0;labelPosition=right;align=left;fontSize=16;fontStyle=1;spacingLeft=0;fontColor=#002A86;spacing=0;" vertex="1" parent="1">
          <mxGeometry x="1042" y="289.5" width="37" height="19" as="geometry" />
        </mxCell>
        <mxCell id="0dfiqVyz6mCU2s2Jha3c-40" value="&lt;font face=&quot;arial&quot; style=&quot;font-size: 16px;&quot;&gt;&lt;b style=&quot;font-size: 16px;&quot;&gt;Public&lt;/b&gt;&lt;/font&gt;" style="text;html=1;align=left;verticalAlign=middle;resizable=0;points=[];autosize=1;strokeColor=none;fillColor=none;fontSize=12;fontColor=#1d2d3e;fontFamily=Helvetica;" vertex="1" parent="1">
          <mxGeometry x="1042" y="323" width="70" height="30" as="geometry" />
        </mxCell>
        <mxCell id="0dfiqVyz6mCU2s2Jha3c-42" value="&lt;font size=&quot;1&quot; color=&quot;#0a74f3&quot;&gt;&lt;b style=&quot;&quot;&gt;API&lt;/b&gt;&lt;/font&gt;" style="rounded=1;whiteSpace=wrap;html=1;arcSize=50;strokeColor=#0070f3;fillColor=default;strokeWidth=1.5;" vertex="1" parent="1">
          <mxGeometry x="1042" y="385" width="57" height="16" as="geometry" />
        </mxCell>
        <mxCell id="0dfiqVyz6mCU2s2Jha3c-43" style="edgeStyle=orthogonalEdgeStyle;rounded=0;orthogonalLoop=1;jettySize=auto;html=1;exitX=1;exitY=0.5;exitDx=0;exitDy=0;" edge="1" parent="1" source="0dfiqVyz6mCU2s2Jha3c-44">
          <mxGeometry relative="1" as="geometry">
            <mxPoint x="1030" y="392" as="targetPoint" />
            <Array as="points">
              <mxPoint x="920" y="340" />
              <mxPoint x="950" y="340" />
              <mxPoint x="950" y="392" />
            </Array>
          </mxGeometry>
        </mxCell>
        <mxCell id="0dfiqVyz6mCU2s2Jha3c-45" value="" style="edgeStyle=orthogonalEdgeStyle;rounded=0;orthogonalLoop=1;jettySize=auto;html=1;exitX=0.448;exitY=-0.051;exitDx=0;exitDy=0;exitPerimeter=0;entryX=0;entryY=0.5;entryDx=0;entryDy=0;" edge="1" parent="1" source="0dfiqVyz6mCU2s2Jha3c-33" target="0dfiqVyz6mCU2s2Jha3c-44">
          <mxGeometry relative="1" as="geometry">
            <mxPoint x="446" y="370" as="sourcePoint" />
            <mxPoint x="1030" y="392" as="targetPoint" />
            <Array as="points">
              <mxPoint x="446" y="340" />
            </Array>
          </mxGeometry>
        </mxCell>
        <mxCell id="0dfiqVyz6mCU2s2Jha3c-44" value="HTTPS / ODATA" style="rounded=1;whiteSpace=wrap;html=1;strokeColor=#475E75;strokeWidth=1.5;arcSize=16;fillColor=#FFFFFF;perimeterSpacing=0;absoluteArcSize=1;fontColor=#475E75;fontSize=10;fontStyle=1" vertex="1" parent="1">
          <mxGeometry x="830" y="332" width="90" height="16" as="geometry" />
        </mxCell>
      </root>
    </mxGraphModel>
  </diagram>
</mxfile>
